<?xml version="1.0" encoding="UTF-8" standalone="no"?>
<svg
   xmlns:dc="http://purl.org/dc/elements/1.1/"
   xmlns:cc="http://creativecommons.org/ns#"
   xmlns:rdf="http://www.w3.org/1999/02/22-rdf-syntax-ns#"
   xmlns:svg="http://www.w3.org/2000/svg"
   xmlns="http://www.w3.org/2000/svg"
   xmlns:sodipodi="http://sodipodi.sourceforge.net/DTD/sodipodi-0.dtd"
   xmlns:inkscape="http://www.inkscape.org/namespaces/inkscape"
   sodipodi:docname="cascoreLogo.svg"
   inkscape:version="1.0 (4035a4fb49, 2020-05-01)"
   id="svg8"
   version="1.1"
   viewBox="0 0 210 297"
   height="297mm"
   width="210mm">
  <defs
     id="defs2" />
  <sodipodi:namedview
     inkscape:guide-bbox="true"
     showguides="true"
     inkscape:window-maximized="1"
     inkscape:window-y="-11"
     inkscape:window-x="-11"
     inkscape:window-height="986"
     inkscape:window-width="1920"
     showgrid="false"
     inkscape:document-rotation="0"
     inkscape:current-layer="layer2"
     inkscape:document-units="mm"
     inkscape:cy="676.59564"
     inkscape:cx="400"
     inkscape:zoom="0.35"
     inkscape:pageshadow="2"
     inkscape:pageopacity="0.0"
     borderopacity="1.0"
     bordercolor="#666666"
     pagecolor="#ffffff"
     id="base">
    <sodipodi:guide
       id="guide920"
       orientation="0,-1"
       position="328.08333,-127.84524" />
  </sodipodi:namedview>
  <metadata
     id="metadata5">
    <rdf:RDF>
      <cc:Work
         rdf:about="">
        <dc:format>image/svg+xml</dc:format>
        <dc:type
           rdf:resource="http://purl.org/dc/dcmitype/StillImage" />
        <dc:title></dc:title>
      </cc:Work>
    </rdf:RDF>
  </metadata>
  <g
     style="display:inline"
     inkscape:label="Layer 2"
     id="layer2"
     inkscape:groupmode="layer">
    <path
       d="M 88.871257,74.752743 C 53.581538,80.112447 24.854796,103.34246 13.788656,135.469 c -4.7053675,13.66062 -5.98203,28.29572 -3.730292,42.76198 55.858149,42.85927 15.47837,-3.85866 26.628953,-38.24893 6.191573,-16.97013 18.339636,-26.34852 30.816302,-32.15544 l 8.424123,46.87673 -35.789179,31.9981 49.501224,8.58487 c 21.388123,40.31792 8.989106,41.98715 43.767923,64.2714 l -2.63848,1.17474 c 33.92544,-6.24547 61.22671,-29.08769 71.93969,-60.18907 5.40336,-15.68681 6.27324,-32.62052 2.52077,-49.07262 l 9.3e-4,-1.8e-4 c -41.28632,-33.63701 -11.14892,14.40924 -19.45035,39.867 -10.21179,29.64644 -40.05377,48.76046 -73.9204,47.34766 l -0.0519,0.0976 -0.0523,-0.102 0.10334,0.003 22.05043,-41.8468 49.48923,-5.11573 -35.84106,-34.50853 7.05729,-39.11439 -6.14053,-4.04883 -36.75101,17.12276 -43.879835,-23.50241 C 96.816981,94.340585 127.28599,100.07914 88.870853,74.751302 Z m 29.275503,80.065587 a 12.773347,12.325158 32.137442 0 1 0.10509,0.0661 12.773347,12.325158 32.137442 0 1 4.26022,17.23102 12.773347,12.325158 32.137442 0 1 -17.37271,3.64182 12.773347,12.325158 32.137442 0 1 -4.25985,-17.23159 12.773347,12.325158 32.137442 0 1 17.26711,-3.70735 z"
       inkscape:transform-center-y="2.8117933"
       inkscape:transform-center-x="-6.5934806"
       style="fill:#256b2f;stroke:#ffffff;stroke-width:2.79815;stroke-linecap:round"
       id="path835" />
  </g>
  <g
     inkscape:label="Layer 5"
     id="layer5"
     inkscape:groupmode="layer" />
  <g
     inkscape:label="Layer 4"
     id="layer4"
     inkscape:groupmode="layer" />
  <g
     style="display:inline"
     id="layer1"
     inkscape:groupmode="layer"
     inkscape:label="Layer 1" />
  <g
     style="display:inline"
     inkscape:label="Layer 3"
     id="layer3"
     inkscape:groupmode="layer" />
</svg>
