<?xml version="1.0" encoding="UTF-8" standalone="no"?>
<svg
   xmlns:dc="http://purl.org/dc/elements/1.1/"
   xmlns:cc="http://creativecommons.org/ns#"
   xmlns:rdf="http://www.w3.org/1999/02/22-rdf-syntax-ns#"
   xmlns:svg="http://www.w3.org/2000/svg"
   xmlns="http://www.w3.org/2000/svg"
   id="svg8"
   version="1.1"
   viewBox="0 0 210 297"
   height="297mm"
   width="210mm">
  <defs
     id="defs2" />
  <metadata
     id="metadata5">
    <rdf:RDF>
      <cc:Work
         rdf:about="">
        <dc:format>image/svg+xml</dc:format>
        <dc:type
           rdf:resource="http://purl.org/dc/dcmitype/StillImage" />
        <dc:title></dc:title>
      </cc:Work>
    </rdf:RDF>
  </metadata>
  <g
     id="layer1">
    <g
       transform="matrix(0.76378572,0,0,0.76378572,0.74914788,47.848299)"
       id="g1421">
      <circle
         id="ellipse1085"
         cy="91.386635"
         cx="106.50822"
         style="fill:#1e1e1e;fill-opacity:1;stroke:#f9f9f9;stroke-width:0.512334;stroke-opacity:1"
         r="17.931688" />
      <circle
         id="ellipse1087"
         cy="91.386635"
         cx="106.50822"
         style="fill:#1e1e1e;fill-opacity:1;stroke:#f9f9f9;stroke-width:2.04934;stroke-opacity:1"
         r="17.931688" />
      <line
         id="line1089"
         y2="91.137848"
         x2="3.7191694"
         y1="91.372032"
         x1="83.588448"
         style="fill:#f9f9f9;fill-opacity:0;stroke:#f9f9f9;stroke-width:1.02467;stroke-opacity:1" />
      <polygon
         id="polygon1091"
         points="317.764,44.9934 307.749,49.9641 310.264,44.9715 307.779,39.9641 "
         style="fill:#1e1e1e;fill-opacity:1;stroke:#f9f9f9;stroke-width:2;stroke-opacity:1"
         transform="matrix(0.51233395,0,0,0.51233395,-75.370336,68.331608)" />
      <path
         id="path1093"
         d="m 3.7191682,91.137846 c 0.00615,-2.049335 2.0616318,-4.092626 4.1109676,-4.086631 2.0493358,0.006 4.0925232,2.061324 4.0863752,4.11066 -0.0061,2.049336 -2.0611191,4.092626 -4.1104549,4.086632 -2.0493358,-0.006 -4.0930359,-2.061325 -4.0868879,-4.110661 z"
         style="fill:#f9f9f9;fill-opacity:1;stroke:#f9f9f9;stroke-width:1.02467" />
      <line
         id="line1095"
         y2="137.29176"
         x2="3.7017517"
         y1="100.30606"
         x1="85.397499"
         style="fill:none;fill-opacity:0;stroke:#f9f9f9;stroke-width:1.02467" />
      <polygon
         id="polygon1097"
         points="320.627,59.3162 313.579,67.9955 313.795,62.4094 309.455,58.8856 "
         style="fill:#1e1e1e;fill-opacity:1;stroke:#f9f9f9;stroke-width:2;stroke-opacity:1"
         transform="matrix(0.51233395,0,0,0.51233395,-75.370336,68.331608)" />
      <line
         id="line1099"
         y2="183.44588"
         x2="3.6838181"
         y1="107.36279"
         x1="90.085358"
         style="fill:none;fill-opacity:0;stroke:#f9f9f9;stroke-width:1.02467" />
      <polygon
         id="polygon1101"
         points="328.574,71.2266 324.373,81.5878 322.945,76.1831 317.764,74.0828 "
         style="fill:#1e1e1e;fill-opacity:1;stroke:#f9f9f9;stroke-width:2;stroke-opacity:1"
         transform="matrix(0.51233395,0,0,0.51233395,-75.370336,68.331608)" />
      <circle
         id="ellipse1103"
         cy="137.49669"
         cx="106.50822"
         style="fill:#1e1e1e;fill-opacity:1;stroke:#f9f9f9;stroke-width:2.04934;stroke-opacity:1"
         r="17.931688" />
      <line
         id="line1105"
         y2="137.29176"
         x2="3.7017517"
         y1="137.48491"
         x1="83.588448"
         style="fill:none;fill-opacity:0;stroke:#f9f9f9;stroke-width:1.02467" />
      <polygon
         id="polygon1107"
         points="317.764,134.995 307.752,139.97 310.264,134.977 307.776,129.97 "
         style="fill:#1e1e1e;fill-opacity:1;stroke:#f9f9f9;stroke-opacity:1"
         transform="matrix(0.51233395,0,0,0.51233395,-75.370336,68.331608)" />
      <polygon
         id="polygon1109"
         points="317.764,134.995 307.752,139.97 310.264,134.977 307.776,129.97 "
         style="fill:#1e1e1e;fill-opacity:1;stroke:#f9f9f9;stroke-width:2;stroke-opacity:1"
         transform="matrix(0.51233395,0,0,0.51233395,-75.370336,68.331608)" />
      <path
         id="path1111"
         d="m 3.7017488,137.29176 c 0.00461,-2.04934 2.0590702,-4.09355 4.108406,-4.08843 2.0493358,0.005 4.0935482,2.05907 4.0889372,4.10841 -0.0051,2.04933 -2.0595824,4.09355 -4.1089182,4.08842 -2.0493358,-0.005 -4.0935483,-2.05907 -4.088425,-4.1084 z"
         style="fill:#000000;stroke:#f9f9f9;stroke-width:0.512334" />
      <path
         id="path1113"
         d="m 3.7017488,137.29176 c 0.00461,-2.04934 2.0590702,-4.09355 4.108406,-4.08843 2.0493358,0.005 4.0935482,2.05907 4.0889372,4.10841 -0.0051,2.04933 -2.0595824,4.09355 -4.1089182,4.08842 -2.0493358,-0.005 -4.0935483,-2.05907 -4.088425,-4.1084"
         style="fill:#f9f9f9;fill-opacity:1;stroke:#f9f9f9;stroke-width:1.02467" />
      <line
         id="line1115"
         y2="183.44588"
         x2="3.6838181"
         y1="146.41795"
         x1="85.398003"
         style="fill:none;fill-opacity:0;stroke:#f9f9f9;stroke-width:1.02467" />
      <polygon
         id="polygon1117"
         points="320.627,149.317 313.583,157.999 313.796,152.413 309.455,148.89 "
         style="fill:#1e1e1e;fill-opacity:1;stroke:#f9f9f9;stroke-width:2;stroke-opacity:1"
         transform="matrix(0.51233395,0,0,0.51233395,-75.370336,68.331608)" />
      <line
         id="line1119"
         y2="91.137848"
         x2="3.7191694"
         y1="128.55698"
         x1="85.406212"
         style="fill:none;fill-opacity:0;stroke:#f9f9f9;stroke-width:1.02467" />
      <polygon
         id="polygon1121"
         points="320.631,120.675 309.457,121.056 313.812,117.551 313.622,111.964 "
         style="fill:#1e1e1e;fill-opacity:1;stroke:#f9f9f9;stroke-width:2;stroke-opacity:1"
         transform="matrix(0.51233395,0,0,0.51233395,-75.370336,68.331608)" />
      <circle
         id="ellipse1123"
         cy="183.60675"
         cx="106.50822"
         style="fill:#1e1e1e;fill-opacity:1;stroke:#f9f9f9;stroke-width:2.04934;stroke-opacity:1"
         r="17.931688" />
      <line
         id="line1125"
         y2="183.44588"
         x2="3.6838181"
         y1="183.59752"
         x1="83.588448"
         style="fill:none;fill-opacity:0;stroke:#f9f9f9;stroke-width:1.02467" />
      <polygon
         id="polygon1127"
         points="317.764,224.996 307.754,229.977 310.264,224.982 307.773,219.977 "
         style="fill:#1e1e1e;fill-opacity:1;stroke:#f9f9f9;stroke-width:2;stroke-opacity:1"
         transform="matrix(0.51233395,0,0,0.51233395,-75.370336,68.331608)" />
      <path
         id="path1129"
         d="m 3.6838172,183.44587 c 0.0041,-2.04933 2.0570208,-4.09457 4.1063566,-4.09098 2.0493358,0.004 4.0950852,2.05702 4.0909862,4.10635 -0.0041,2.04934 -2.0570205,4.09509 -4.1063563,4.09099 -2.0493358,-0.004 -4.0950852,-2.05702 -4.0909865,-4.10636 z"
         style="fill:#f9f9f9;fill-opacity:1;stroke:#f9f9f9;stroke-width:1.02467" />
      <line
         id="line1131"
         y2="137.29176"
         x2="3.7017517"
         y1="174.66959"
         x1="85.405182"
         style="fill:none;fill-opacity:0;stroke:#f9f9f9;stroke-width:1.02467" />
      <polygon
         id="polygon1133"
         points="320.631,210.676 309.457,211.062 313.81,207.556 313.617,201.969 "
         style="fill:#1e1e1e;fill-opacity:1;stroke:#f9f9f9;stroke-width:2;stroke-opacity:1"
         transform="matrix(0.51233395,0,0,0.51233395,-75.370336,68.331608)" />
      <line
         id="line1135"
         y2="91.137848"
         x2="3.7191694"
         y1="167.62091"
         x1="90.094582"
         style="fill:none;fill-opacity:0;stroke:#f9f9f9;stroke-width:1.02467" />
      <polygon
         id="polygon1137"
         points="328.578,198.77 317.776,195.884 322.963,193.798 324.406,188.397 "
         style="fill:#1e1e1e;fill-opacity:1;stroke:#f9f9f9;stroke-width:2;stroke-opacity:1"
         transform="matrix(0.51233395,0,0,0.51233395,-75.370336,68.331608)" />
      <circle
         id="ellipse1139"
         cy="114.53665"
         cx="202.62822"
         style="fill:#1e1e1e;fill-opacity:1;stroke:#f9f9f9;stroke-width:2.04934;stroke-opacity:1"
         r="17.931688" />
      <line
         id="line1141"
         y2="91.386635"
         x2="124.4399"
         y1="112.74773"
         x1="180.04042"
         style="fill:#1e1e1e;fill-opacity:1;stroke:#f9f9f9;stroke-width:1.02467;stroke-opacity:1" />
      <polygon
         id="polygon1143"
         points="505.525,89.3835 494.397,90.4645 498.524,86.6937 497.983,81.1297 "
         style="fill:#1e1e1e;fill-opacity:1;stroke:#f9f9f9;stroke-width:2;stroke-opacity:1"
         transform="matrix(0.51233395,0,0,0.51233395,-75.370336,68.331608)" />
      <line
         id="line1145"
         y2="137.49669"
         x2="124.4399"
         y1="122.6595"
         x1="181.23518"
         style="fill:#1e1e1e;fill-opacity:1;stroke:#f9f9f9;stroke-width:1.02467;stroke-opacity:1" />
      <polygon
         id="polygon1147"
         points="508.113,104.145 499.701,111.51 500.856,106.04 497.173,101.834 "
         style="fill:#1e1e1e;fill-opacity:1;stroke:#f9f9f9;stroke-width:2;stroke-opacity:1"
         transform="matrix(0.51233395,0,0,0.51233395,-75.370336,68.331608)" />
      <line
         id="line1149"
         y2="183.60675"
         x2="124.4399"
         y1="130.47055"
         x1="186.16846"
         style="fill:#1e1e1e;fill-opacity:1;stroke:#f9f9f9;stroke-width:1.02467;stroke-opacity:1" />
      <polygon
         id="polygon1151"
         points="516.169,116.393 511.852,126.706 510.485,121.286 505.329,119.127 "
         style="fill:#1e1e1e;fill-opacity:1;stroke:#f9f9f9;stroke-width:2;stroke-opacity:1"
         transform="matrix(0.51233395,0,0,0.51233395,-75.370336,68.331608)" />
      <circle
         id="ellipse1153"
         cy="160.6465"
         cx="202.62822"
         style="fill:#1e1e1e;fill-opacity:1;stroke:#f9f9f9;stroke-width:2.04934;stroke-opacity:1"
         r="17.931688" />
      <line
         id="line1155"
         y2="183.60675"
         x2="124.4399"
         y1="162.42276"
         x1="180.03531"
         style="fill:#1e1e1e;fill-opacity:1;stroke:#f9f9f9;stroke-width:1.02467;stroke-opacity:1" />
      <polygon
         id="polygon1157"
         points="505.522,180.982 497.958,189.215 498.514,183.652 494.398,179.87 "
         style="fill:#1e1e1e;fill-opacity:1;stroke:#f9f9f9;stroke-width:2;stroke-opacity:1"
         transform="matrix(0.51233395,0,0,0.51233395,-75.370336,68.331608)" />
      <line
         id="line1159"
         y2="137.49669"
         x2="124.4399"
         y1="152.51013"
         x1="181.23878"
         style="fill:#1e1e1e;fill-opacity:1;stroke:#f9f9f9;stroke-width:1.02467;stroke-opacity:1" />
      <polygon
         id="polygon1161"
         points="508.114,166.22 497.168,168.499 500.863,164.304 499.724,158.831 "
         style="fill:#1e1e1e;fill-opacity:1;stroke:#f9f9f9;stroke-width:2;stroke-opacity:1"
         transform="matrix(0.51233395,0,0,0.51233395,-75.370336,68.331608)" />
      <line
         id="line1163"
         y2="91.386635"
         x2="124.4399"
         y1="144.70677"
         x1="186.1741"
         style="fill:#1e1e1e;fill-opacity:1;stroke:#f9f9f9;stroke-width:1.02467;stroke-opacity:1" />
      <polygon
         id="polygon1165"
         points="516.172,153.975 505.336,151.223 510.496,149.073 511.872,143.655 "
         style="fill:#1e1e1e;fill-opacity:1;stroke:#f9f9f9;stroke-width:2;stroke-opacity:1"
         transform="matrix(0.51233395,0,0,0.51233395,-75.370336,68.331608)" />
      <line
         id="line1167"
         y2="114.53665"
         x2="220.55991"
         y1="114.54654"
         x1="266.9989"
         style="fill:none;fill-opacity:0;stroke:#f9f9f9;stroke-width:1.02467" />
      <polygon
         id="polygon1169"
         points="675.754,90.2063 665.753,95.2042 668.254,90.2047 665.755,85.2042 "
         style="fill:#000000;stroke:#f9f9f9;stroke-width:2"
         transform="matrix(0.51233395,0,0,0.51233395,-75.370336,68.331608)" />
      <line
         id="line1171"
         y2="160.6465"
         x2="220.55991"
         y1="160.64854"
         x1="267.00708"
         style="fill:none;fill-opacity:0;stroke:#f9f9f9;stroke-width:1.02467" />
      <polygon
         id="polygon1173"
         points="675.77,180.19 665.77,185.189 668.27,180.189 665.77,175.189 "
         style="fill:#000000;stroke:#f9f9f9;stroke-width:2"
         transform="matrix(0.51233395,0,0,0.51233395,-75.370336,68.331608)" />
    </g>
  </g>
</svg>
