<?xml version="1.0" standalone="no"?>
<!DOCTYPE svg PUBLIC "-//W3C//DTD SVG 20010904//EN"
 "http://www.w3.org/TR/2001/REC-SVG-20010904/DTD/svg10.dtd">
<svg version="1.0" xmlns="http://www.w3.org/2000/svg"
 width="1123.000000pt" height="1123.000000pt" viewBox="0 0 1123.000000 1123.000000"
 preserveAspectRatio="xMidYMid meet">
<metadata>
Created by potrace 1.11, written by Peter Selinger 2001-2013
</metadata>
<g transform="translate(0.000000,1123.000000) scale(0.100000,-0.100000)"
fill="#000000" stroke="none">
<path d="M4947 8476 c4 -21 0 -25 -44 -34 -26 -6 -69 -14 -96 -18 -26 -3 -50
-10 -53 -15 -3 -5 -9 -7 -12 -5 -7 4 -121 -21 -190 -43 -18 -5 -35 -10 -37
-10 -11 0 -182 -53 -205 -63 -14 -7 -28 -12 -32 -14 -5 -1 -10 -3 -13 -4 -3
-1 -8 -3 -12 -4 -71 -17 -525 -223 -543 -247 -3 -3 -23 -16 -45 -28 -54 -29
-294 -184 -329 -212 -6 -5 -49 -39 -96 -75 -211 -165 -457 -412 -600 -603 -14
-18 -34 -45 -46 -59 -26 -34 -154 -223 -154 -228 0 -2 -17 -29 -37 -61 -32
-50 -177 -325 -182 -345 -3 -11 -30 -78 -46 -113 -24 -54 -74 -195 -68 -195 3
0 1 -6 -5 -12 -8 -11 -24 -60 -37 -113 -1 -5 -5 -17 -8 -25 -5 -13 -21 -70
-33 -120 -19 -80 -54 -256 -59 -300 -3 -30 -8 -62 -10 -70 -4 -15 -14 -116
-21 -205 -5 -65 -5 -418 0 -470 2 -22 7 -71 10 -110 3 -38 9 -88 13 -110 4
-22 7 -44 8 -50 1 -5 3 -20 3 -31 1 -14 34 -46 100 -95 53 -41 99 -76 102 -79
3 -3 22 -16 42 -30 21 -14 38 -28 38 -32 0 -5 5 -8 11 -8 10 0 28 -13 86 -60
12 -10 334 -226 368 -247 103 -64 253 -131 312 -139 26 -3 51 -8 55 -10 4 -2
9 0 13 5 3 6 12 8 19 5 7 -3 31 13 53 35 54 51 65 108 49 249 -3 26 0 32 13
28 34 -9 119 -24 176 -30 22 -3 40 -5 40 -6 0 -3 108 -23 185 -35 19 -3 46 -7
60 -10 14 -3 39 -7 55 -10 17 -3 39 -7 50 -9 11 -2 40 -7 65 -11 25 -4 54 -9
65 -11 19 -4 114 -21 165 -29 14 -2 34 -6 45 -8 31 -7 96 -17 135 -22 19 -3
55 -9 80 -14 64 -15 111 -22 143 -24 15 -1 27 -4 27 -7 0 -3 10 -5 23 -6 12 0
51 -6 87 -13 36 -7 81 -14 100 -17 19 -2 49 -7 65 -11 17 -3 37 -7 45 -8 8 -1
47 -8 86 -15 l71 -13 48 -96 c27 -53 79 -161 117 -241 38 -80 73 -153 78 -162
6 -10 10 -25 10 -33 0 -8 5 -15 10 -15 6 0 10 -8 10 -18 0 -10 3 -22 8 -26 4
-4 7 -11 7 -14 1 -4 5 -16 11 -27 6 -11 21 -47 34 -80 12 -33 28 -74 36 -91
21 -48 104 -267 109 -286 2 -10 10 -32 18 -50 15 -34 29 -68 32 -80 2 -5 4
-10 5 -13 1 -3 3 -8 5 -12 1 -5 6 -19 12 -33 6 -14 21 -50 33 -80 29 -73 98
-207 127 -246 13 -17 23 -34 23 -37 0 -17 104 -141 190 -227 97 -97 162 -155
254 -224 28 -21 53 -41 56 -45 3 -3 12 -10 21 -16 10 -5 37 -24 60 -41 24 -17
91 -63 149 -103 58 -39 105 -75 105 -79 1 -14 28 -102 31 -102 13 0 246 53
292 66 30 9 62 18 71 19 9 2 16 4 16 5 0 2 17 6 45 13 8 2 47 14 85 27 39 13
72 25 75 25 3 1 14 5 25 10 11 4 65 25 120 47 54 22 142 60 195 85 52 25 101
47 109 49 8 1 17 6 20 11 8 11 49 33 61 33 6 0 20 9 32 20 12 11 28 20 35 20
8 0 19 5 26 10 7 6 57 39 112 73 55 34 105 65 110 69 6 5 48 36 95 70 47 33
87 65 88 69 2 5 10 9 17 9 7 0 15 3 17 8 2 4 19 20 38 35 166 135 377 349 510
517 29 36 59 74 68 85 36 44 102 144 102 154 0 6 4 11 10 11 5 0 18 17 29 38
11 21 27 44 35 51 9 7 14 17 11 21 -3 4 2 13 10 20 8 7 15 16 15 21 0 5 11 26
24 47 37 60 116 213 116 227 0 8 3 15 8 17 16 7 128 291 166 423 10 33 21 67
24 75 8 23 10 32 17 65 3 17 12 53 20 80 8 28 16 67 20 89 3 21 7 42 10 46 2
4 7 25 10 46 2 21 7 50 10 64 3 14 8 41 10 60 2 19 6 53 9 75 20 147 27 544
13 685 -3 30 -8 85 -11 123 -2 37 -7 75 -10 85 -3 9 -8 37 -11 62 -2 25 -7 56
-10 70 -3 14 -8 42 -11 63 l-7 37 39 0 39 1 -25 20 c-14 11 -36 31 -50 43 -14
12 -41 33 -60 46 -19 14 -42 33 -51 43 -9 9 -21 17 -27 17 -5 0 -12 6 -15 13
-3 7 -24 26 -48 42 -24 16 -49 34 -54 39 -6 6 -33 26 -60 45 -233 159 -337
215 -426 225 -14 1 -30 5 -35 8 -19 12 -107 -20 -133 -48 -45 -49 -60 -113
-55 -249 2 -66 6 -131 9 -145 3 -14 8 -45 10 -70 3 -25 8 -52 10 -60 5 -18 16
-76 20 -110 2 -14 13 -77 25 -140 11 -63 23 -127 25 -142 3 -16 7 -40 10 -55
2 -16 7 -46 10 -68 3 -22 8 -56 11 -75 38 -228 38 -589 0 -735 -1 -5 -6 -25
-10 -42 -4 -18 -10 -33 -13 -33 -3 0 -36 30 -73 68 -38 37 -138 133 -222 214
-84 80 -187 179 -229 220 -42 40 -170 163 -284 273 -114 110 -240 232 -280
270 -40 39 -112 107 -159 153 l-87 84 6 46 c9 66 14 93 29 167 8 40 35 191 41
225 3 19 11 60 17 90 6 30 12 69 14 85 1 17 3 32 5 35 1 3 3 10 4 15 2 6 4 12
5 15 1 3 3 14 4 25 2 11 6 37 10 58 3 20 9 53 12 73 8 54 15 88 30 154 3 14 6
32 6 40 0 8 6 44 13 80 7 36 16 79 18 95 3 17 16 87 28 157 12 70 21 129 18
131 -2 2 -66 44 -142 94 l-138 91 -82 -38 c-242 -112 -359 -167 -457 -213 -47
-22 -87 -41 -90 -42 -5 -1 -30 -13 -218 -101 -51 -24 -94 -44 -97 -44 -2 -1
-60 -27 -127 -59 -195 -92 -281 -133 -305 -142 -17 -6 -40 2 -103 36 -44 25
-84 45 -89 45 -5 0 -11 3 -13 8 -1 4 -50 32 -108 62 -58 29 -123 64 -145 76
-22 13 -69 38 -105 57 -36 18 -96 51 -135 72 -38 20 -106 57 -150 80 -109 58
-208 111 -282 151 -131 71 -191 103 -298 159 -60 32 -114 61 -118 65 -5 4 8
13 30 20 21 7 43 16 48 20 9 7 333 119 358 124 7 2 32 8 57 15 25 8 50 14 55
16 6 1 17 5 25 8 13 5 331 93 370 102 8 2 15 4 15 5 0 1 8 3 17 5 10 2 48 13
85 26 37 12 68 21 68 20 0 -10 173 87 204 114 134 121 64 291 -214 515 -44 36
-82 68 -85 71 -3 3 -27 21 -55 39 -27 19 -54 38 -60 43 -19 17 -300 206 -306
207 -3 0 -4 -11 -2 -24z m-788 -1444 c6 -20 13 -53 15 -72 3 -19 15 -84 26
-145 11 -60 23 -126 25 -145 3 -19 15 -84 26 -145 12 -60 22 -119 24 -130 2
-20 19 -112 30 -170 3 -16 7 -39 9 -50 2 -11 7 -36 10 -55 24 -128 29 -157 31
-175 2 -11 5 -31 8 -45 5 -25 22 -117 32 -175 2 -16 7 -41 10 -55 3 -14 7 -38
10 -55 2 -16 6 -39 8 -50 3 -11 10 -53 17 -92 15 -83 28 -61 -105 -178 -37
-33 -73 -65 -79 -70 -6 -6 -78 -71 -161 -145 -82 -74 -155 -139 -161 -145 -6
-5 -40 -35 -75 -67 -35 -31 -77 -68 -94 -83 -16 -15 -46 -41 -65 -59 -19 -17
-73 -65 -119 -106 -47 -41 -92 -82 -101 -90 -8 -8 -44 -40 -79 -70 -35 -30
-80 -71 -101 -90 -84 -79 -111 -102 -114 -99 -3 5 -19 68 -41 164 -9 39 -18
81 -22 95 -3 14 -7 31 -9 39 -2 8 -6 26 -10 40 -4 14 -8 35 -9 46 -1 11 -8 45
-14 75 -7 30 -14 66 -16 80 -2 14 -6 36 -9 50 -6 26 -15 84 -22 135 -2 17 -6
46 -9 65 -24 166 -25 562 -1 630 3 8 7 33 10 55 5 42 40 175 55 210 9 20 44
98 75 168 79 175 246 401 416 562 106 101 305 246 430 315 25 13 63 34 85 46
22 13 43 23 47 23 4 1 12 -16 17 -37z m1816 -1656 c88 -26 196 -104 238 -172
51 -82 74 -166 72 -254 -3 -81 -8 -101 -42 -169 -70 -138 -220 -224 -381 -217
-69 4 -119 13 -137 26 -5 4 -21 11 -35 15 -14 4 -50 28 -81 52 -280 219 -199
640 140 728 62 16 153 12 226 -9z m2598 -1466 c-2 -8 -15 -42 -29 -75 -14 -33
-31 -72 -37 -87 -6 -16 -15 -28 -19 -28 -4 0 -8 -7 -8 -15 0 -14 -18 -53 -30
-65 -3 -3 -16 -25 -29 -50 -13 -25 -49 -83 -80 -129 -31 -46 -60 -91 -66 -100
-5 -8 -14 -20 -20 -27 -5 -6 -17 -20 -25 -31 -8 -10 -33 -41 -54 -68 -22 -28
-97 -106 -166 -175 -127 -127 -140 -138 -220 -200 -25 -19 -47 -37 -50 -40
-18 -19 -200 -139 -200 -132 0 4 -4 2 -8 -3 -14 -21 -252 -150 -252 -137 0 4
-4 2 -8 -4 -8 -14 -224 -106 -292 -125 -25 -7 -48 -18 -52 -24 -4 -5 -8 -7 -8
-3 0 4 -18 1 -40 -7 -22 -8 -44 -14 -48 -15 -4 0 -20 -4 -37 -10 -16 -5 -41
-12 -55 -14 -14 -3 -56 -13 -95 -21 -38 -9 -85 -18 -104 -21 -18 -3 -43 -8
-55 -10 -78 -16 -268 -32 -434 -38 -104 -3 -105 -2 -56 76 13 21 24 40 24 43
0 2 20 41 44 85 25 44 42 80 38 80 -4 0 -2 4 3 8 6 4 25 36 44 72 51 99 155
297 194 370 19 36 60 115 92 175 32 61 66 125 77 143 11 17 16 32 11 32 -4 0
-3 4 3 8 7 4 28 39 47 77 19 39 53 104 76 145 23 41 51 96 64 122 20 44 25 48
62 49 37 2 52 4 65 8 3 1 23 4 45 5 108 9 192 17 215 21 14 2 57 7 95 10 39 3
84 8 100 11 17 2 57 6 90 9 33 2 60 5 60 5 0 1 16 3 35 5 19 1 59 6 89 9 29 3
83 9 120 12 36 4 77 8 91 9 14 2 57 6 95 9 39 4 84 9 101 11 17 2 57 7 90 10
32 3 75 8 94 10 19 2 67 7 105 11 39 4 84 8 100 10 17 2 57 6 89 9 33 3 61 6
62 8 2 2 16 3 31 2 19 0 27 -5 26 -15z"/>
</g>
</svg>
